<svg xmlns="http://www.w3.org/2000/svg" data-name="Layer 1" height="24" width="24"><rect id="backgroundrect" width="100%" height="100%" x="0" y="0" fill="none" stroke="none"/><title/><g class="currentLayer" style=""><title>Layer 1</title><polygon points="10.863 10.23 9.574 9.574 10.23 10.863 10.863 10.23" id="svg_1" class="" fill="#3eb489" fill-opacity="1"/><polygon points="11.886 14.112 12.543 15.401 12.769 13.972 11.886 14.112" id="svg_2" class="" fill="#3eb489" fill-opacity="1"/><polygon points="14.112 11.886 13.972 12.769 15.401 12.543 14.112 11.886" id="svg_3" class="" fill="#3eb489" fill-opacity="1"/><path d="M7.30756,14.83765A5.328,5.328,0,0,0,12.4657,17.453l-1.618-3.17615Z" id="svg_4" class="" fill="#3eb489" fill-opacity="1"/><path d="M11.60645,9.48682,14.148,6.94525a5.41393,5.41393,0,0,0-5.73181.91632Z" id="svg_5" class="" fill="#3eb489" fill-opacity="1"/><polygon points="10.708 11.8 11.409 13.175 12.934 12.934 13.175 11.409 11.8 10.708 10.708 11.8" id="svg_6" class="" fill="#3eb489" fill-opacity="1"/><polygon points="10.37 13.34 9.964 12.543 8.941 13.566 10.37 13.34" id="svg_7" class="" fill="#3eb489" fill-opacity="1"/><path d="M14.83765,7.30756l-.56079,3.5401,3.17615,1.618a5.328,5.328,0,0,0-2.61536-5.15814Z" id="svg_8" class="" fill="#3eb489" fill-opacity="1"/><path d="M19.071,4.92889a10,10,0,1,0,0,14.14215A10,10,0,0,0,19.071,4.92889ZM16.94971,16.94971a6.9661,6.9661,0,0,1-1.45776,1.1084.69473.69473,0,0,1,.01587.07861v1.77637a.75.75,0,1,1-1.5,0V18.704a7.00191,7.00191,0,0,1-1,.21216v1.90808a.75.75,0,0,1-1.5,0V18.97314A6.99455,6.99455,0,0,1,9,18.31592v.49658a.75.75,0,0,1-1.5,0V17.356c-.15356-.12915-.30524-.26184-.44971-.40631a6.99994,6.99994,0,1,1,9.89941,0Z" id="svg_9" class="" fill="#3eb489" fill-opacity="1"/><polygon points="13.566 8.941 12.543 9.964 13.34 10.37 13.566 8.941" id="svg_10" class="" fill="#3eb489" fill-opacity="1"/><path d="M9.48682,11.60645,7.86157,8.4162A5.49,5.49,0,0,0,6.94525,14.148Z" id="svg_11" class="" fill="#3eb489" fill-opacity="1"/><path d="M13.80762,13.80762l-.55939,3.53113a5.38663,5.38663,0,0,0,4.09045-4.09052Z" id="svg_12" class="" fill="#3eb489" fill-opacity="1"/></g></svg>